<?xml version="1.0"?><svg width="640" height="480" xmlns="http://www.w3.org/2000/svg">
 <title>Ethernet Switch</title>
 <g>
  <title>Layer 1</title>
  <path fill="#000000" fill-rule="evenodd" stroke="#000000" stroke-width="3.75" stroke-linejoin="bevel" id="path1435" d="m93,225.25l443.75,1.25l3.75,86.25l-448.75,1.25l1.25,-88.75z"/>
  <path fill="#000000" fill-rule="evenodd" stroke="#000000" stroke-width="3.75" stroke-linejoin="bevel" id="path1436" d="m91.75,224c1.25,-1.25 75,-68.75 75,-68.75l318.75,0l51.25,72.5l-445,-3.75z"/>
  <path fill="#ffffff" fill-rule="evenodd" stroke="#ffffff" stroke-width="3.75" stroke-linejoin="bevel" id="path1437" d="m501.75,240.25l0,17.5l18.75,0l0,-17.5l-18.75,0z"/>
  <path fill="#ffffff" fill-rule="evenodd" stroke="#ffffff" stroke-width="3.75" stroke-linejoin="bevel" id="path1439" d="m436.75,240.25l0,17.5l18.75,0l0,-17.5l-18.75,0z"/>
  <path fill="#ffffff" fill-rule="evenodd" stroke="#ffffff" stroke-width="3.75" stroke-linejoin="bevel" id="path1441" d="m373,240.25l0,17.5l18.75,0l0,-17.5l-18.75,0z"/>
  <path fill="#ffffff" fill-rule="evenodd" stroke="#ffffff" stroke-width="3.75" stroke-linejoin="bevel" id="path1445" d="m253,240.25l0,17.5l18.75,0l0,-17.5l-18.75,0z"/>
  <path fill="#ffffff" fill-rule="evenodd" stroke="#ffffff" stroke-width="3.75" stroke-linejoin="bevel" id="path1447" d="m193,240.25l0,17.5l18.75,0l0,-17.5l-18.75,0z"/>
  <path fill="#ffffff" fill-rule="evenodd" stroke="#ffffff" stroke-width="3.75" stroke-linejoin="bevel" id="path1449" d="m131.75,240.25l0,17.5l18.75,0l0,-17.5l-18.75,0z"/>
  <path fill="#ffffff" fill-rule="evenodd" stroke="#ffffff" stroke-width="3.75" stroke-linejoin="bevel" id="path1451" d="m501,279l0,17.5l18.75,0l0,-17.5l-18.75,0z"/>
  <path fill="#ffffff" fill-rule="evenodd" stroke="#ffffff" stroke-width="3.75" stroke-linejoin="bevel" id="path1453" d="m436,279l0,17.5l18.75,0l0,-17.5l-18.75,0z"/>
  <path fill="#ffffff" fill-rule="evenodd" stroke="#ffffff" stroke-width="3.75" stroke-linejoin="bevel" id="path1455" d="m372.25,279l0,17.5l18.75,0l0,-17.5l-18.75,0z"/>
  <path fill="#ffffff" fill-rule="evenodd" stroke="#ffffff" stroke-width="3.75" stroke-linejoin="bevel" id="path1457" d="m312.25,279l0,17.5l18.75,0l0,-17.5l-18.75,0z"/>
  <path fill="#ffffff" fill-rule="evenodd" stroke="#ffffff" stroke-width="3.75" stroke-linejoin="bevel" id="path1459" d="m252.25,279l0,17.5l18.75,0l0,-17.5l-18.75,0z"/>
  <path fill="#ffffff" fill-rule="evenodd" stroke="#ffffff" stroke-width="3.75" stroke-linejoin="bevel" id="path1461" d="m192.25,279l0,17.5l18.75,0l0,-17.5l-18.75,0z"/>
  <path fill="#ffffff" fill-rule="evenodd" stroke="#ffffff" stroke-width="3.75" stroke-linejoin="bevel" id="path1463" d="m131,279l0,17.5l18.75,0l0,-17.5l-18.75,0z"/>
  <line id="svg_2" y2="223" x2="539.000025" y1="223" x1="89.999977" stroke-width="12" stroke="#ffffff" fill="none"/>
  <line id="svg_3" y2="326.000004" x2="93" y1="228" x1="93" stroke-width="9" stroke="#ffffff" fill="none"/>
  <line id="svg_4" y2="323.000004" x2="539" y1="225" x1="539" stroke-width="9" stroke="#ffffff" fill="none"/>
  <line id="svg_5" y2="312" x2="538.000025" y1="312" x1="88.999977" stroke-width="9" stroke="#ffffff" fill="none"/>
  <line id="svg_6" y2="155" x2="558.000025" y1="155" x1="108.999977" stroke-width="9" stroke="#ffffff" fill="none"/>
  <line id="svg_7" y2="235.000004" x2="541" y1="137" x1="471" stroke-width="9" stroke="#ffffff" fill="none"/>
  <line id="svg_8" y2="228.000004" x2="86" y1="130" x1="196" stroke-width="9" stroke="#ffffff" fill="none"/>
  <path fill="#ffffff" fill-rule="evenodd" stroke="#ffffff" stroke-width="3.75" stroke-linejoin="bevel" id="path1443" d="m313,240.25l0,17.5l18.75,0l0,-17.5l-18.75,0z"/>
 </g>
</svg>